<?xml version="1.0" standalone="no"?>
<!DOCTYPE svg PUBLIC "-//W3C//DTD SVG 20010904//EN"
 "http://www.w3.org/TR/2001/REC-SVG-20010904/DTD/svg10.dtd">
<svg version="1.0" xmlns="http://www.w3.org/2000/svg"
 width="381.000000pt" height="394.000000pt" viewBox="0 0 381.000000 394.000000"
 preserveAspectRatio="xMidYMid meet">

<g transform="translate(0.000000,394.000000) scale(0.100000,-0.100000)"
fill="#000000" stroke="none">
<path d="M0 3859 c0 -69 4 -88 31 -142 16 -34 40 -91 51 -127 11 -36 36 -95
54 -132 19 -37 45 -96 58 -130 13 -35 49 -118 80 -186 31 -68 56 -127 56 -132
0 -5 18 -47 40 -94 22 -47 40 -88 40 -91 0 -3 8 -25 19 -48 10 -23 31 -75 45
-115 14 -40 37 -97 50 -125 14 -29 38 -88 55 -132 16 -44 68 -165 115 -270 47
-104 86 -191 86 -192 0 -2 -6 -3 -14 -3 -8 0 -17 -6 -19 -12 -4 -10 -6 -10 -6
0 -1 8 -19 12 -54 12 l-52 0 -110 226 c-61 124 -116 243 -124 265 -7 22 -58
126 -114 232 -56 106 -122 239 -147 297 -70 158 -109 230 -125 230 -13 0 -15
-34 -14 -237 1 -236 1 -238 17 -185 9 28 20 52 24 52 8 0 46 -72 68 -130 7
-19 19 -42 27 -51 13 -16 76 -140 75 -149 0 -3 5 -12 12 -20 15 -19 29 -49 59
-130 14 -36 39 -103 57 -150 33 -88 93 -214 112 -237 6 -8 8 -17 4 -21 -4 -4
-109 -9 -232 -11 l-224 -3 0 -306 c0 -168 2 -303 4 -301 2 2 11 45 20 94 22
120 38 185 47 185 9 0 30 -26 33 -42 2 -7 9 -26 15 -43 16 -39 107 -294 131
-367 11 -31 30 -78 44 -105 29 -57 73 -203 193 -638 19 -72 48 -175 65 -230
16 -55 32 -113 36 -130 l8 -30 92 -3 93 -3 -16 38 c-29 68 -53 145 -94 303
-22 85 -54 193 -71 240 -17 47 -38 112 -45 145 -37 163 -95 370 -140 495 -15
41 -34 95 -42 120 -8 25 -36 106 -62 180 -50 147 -52 156 -33 152 16 -3 15 19
-2 43 -7 11 -20 16 -29 12 -11 -4 -18 3 -26 24 l-10 29 44 0 c44 0 44 0 76
-62 17 -35 49 -111 70 -170 20 -59 43 -116 49 -127 10 -20 61 -198 82 -291 6
-25 14 -49 18 -55 17 -21 69 -193 80 -260 7 -47 26 -99 56 -160 25 -49 59
-121 75 -161 22 -52 36 -74 52 -78 33 -9 35 -8 42 17 4 12 20 51 35 87 32 72
67 185 95 300 10 41 25 95 35 120 10 25 27 79 39 120 60 209 160 516 190 585
10 22 23 61 30 86 13 46 13 46 52 43 48 -3 94 -41 76 -62 -15 -19 -47 -112
-47 -139 0 -12 -9 -45 -20 -73 -11 -27 -22 -64 -25 -82 -3 -18 -10 -37 -15
-43 -5 -6 -14 -41 -20 -78 -6 -37 -23 -100 -39 -140 -15 -40 -41 -110 -56
-157 -15 -47 -38 -110 -50 -140 -13 -30 -38 -93 -55 -140 -18 -47 -38 -98 -45
-115 -7 -16 -18 -48 -25 -70 -7 -22 -35 -85 -62 -139 -47 -93 -115 -270 -125
-325 -2 -13 -8 -32 -13 -42 -6 -10 -10 -20 -10 -23 0 -3 49 -6 110 -6 l110 0
6 28 c13 63 46 166 59 186 8 12 45 113 83 226 38 113 84 243 102 290 37 99
107 303 139 410 13 41 30 85 38 98 13 21 47 133 89 290 8 29 14 63 14 76 0 13
7 29 15 36 12 10 16 9 21 -6 4 -11 33 -73 64 -139 31 -66 69 -154 84 -195 15
-41 33 -88 41 -105 7 -16 23 -57 35 -89 11 -33 31 -82 44 -110 13 -28 38 -96
55 -151 18 -54 41 -115 50 -135 10 -19 24 -57 31 -84 9 -33 20 -50 33 -54 12
-3 15 -7 7 -12 -8 -5 -4 -33 14 -103 13 -53 29 -104 35 -115 7 -14 91 -324 91
-339 0 -2 83 -3 184 -3 217 0 194 -14 249 155 49 152 101 288 141 365 18 36
36 78 40 93 4 15 11 25 16 22 5 -3 7 0 4 8 -3 8 1 21 8 28 7 8 15 23 16 34 2
11 9 23 14 26 7 4 7 9 0 13 -7 4 -6 15 3 34 7 15 22 46 34 70 11 23 34 96 51
162 16 65 36 134 45 152 8 18 37 94 64 168 27 74 65 173 85 220 35 84 35 84
47 55 16 -41 58 -188 74 -260 7 -33 18 -73 24 -89 6 -16 16 -49 22 -75 6 -25
12 -53 15 -61 2 -8 11 -49 20 -90 8 -41 19 -81 24 -90 7 -14 15 -50 26 -120 2
-14 22 -97 43 -185 21 -88 43 -180 49 -205 5 -25 20 -81 32 -125 12 -44 35
-129 50 -190 l28 -110 116 -3 116 -3 0 153 -1 153 -35 -95 c-20 -52 -39 -106
-44 -120 -10 -33 -15 -20 -36 100 -18 107 -34 166 -94 360 -23 74 -59 203 -80
285 -21 83 -57 211 -80 285 -22 74 -50 168 -61 208 -11 41 -31 107 -44 147
-14 42 -25 97 -25 127 0 42 -6 64 -28 99 l-29 45 46 -1 46 0 52 -155 c28 -85
58 -185 67 -221 9 -37 29 -101 46 -142 16 -41 30 -81 30 -89 0 -7 17 -85 39
-173 21 -88 47 -196 57 -240 32 -144 71 -208 113 -185 12 6 21 17 21 25 0 8 4
15 8 15 25 0 32 60 31 268 l-1 217 -29 -60 c-33 -69 -46 -78 -55 -38 -3 15
-13 51 -21 78 -8 28 -25 91 -38 140 -41 163 -150 502 -167 522 -8 10 -4 13 18
13 16 0 65 3 109 6 44 4 96 2 115 -3 61 -16 70 -9 70 57 l0 59 -66 3 -66 3
-25 65 c-13 36 -36 102 -49 148 -13 46 -33 100 -43 120 -24 48 -93 284 -167
577 -14 55 -34 125 -44 155 -10 30 -31 100 -45 155 -15 55 -31 111 -36 125
-16 40 -61 100 -75 100 -7 0 -20 -21 -29 -47 -9 -27 -21 -59 -27 -73 -14 -34
-57 -200 -73 -280 -13 -62 -25 -103 -81 -280 -13 -41 -24 -86 -24 -98 0 -27
-42 -157 -70 -217 -10 -22 -21 -56 -24 -75 -12 -72 -57 -236 -84 -302 -11 -27
-14 -28 -85 -28 l-73 0 7 58 c3 31 18 83 33 115 34 75 125 339 137 397 5 25
20 69 34 98 14 29 25 62 25 73 0 11 9 48 20 82 11 34 32 100 46 147 15 47 33
99 40 115 13 31 25 74 69 255 23 91 51 186 87 295 13 38 41 98 49 105 3 3 14
30 23 60 10 30 20 62 23 70 3 8 7 22 7 30 1 8 10 15 20 15 16 0 22 -11 32 -60
7 -33 15 -69 18 -80 3 -11 17 -69 32 -130 14 -60 43 -164 64 -230 68 -214 117
-378 139 -465 29 -119 95 -326 121 -384 15 -33 20 -58 16 -80 -4 -21 3 -64 19
-122 28 -97 100 -300 115 -324 6 -10 10 53 10 184 0 181 -2 209 -25 300 -51
200 -57 222 -84 286 -16 36 -31 82 -35 103 -4 21 -20 79 -37 130 -16 51 -38
137 -49 191 -11 55 -23 102 -27 105 -5 3 -9 17 -10 31 -12 131 -12 140 0 140
15 0 39 -15 38 -24 -3 -22 0 -36 9 -36 6 0 10 15 10 34 0 19 4 37 9 41 15 8
31 -29 31 -69 0 -20 4 -44 9 -54 8 -15 21 -65 50 -192 5 -19 13 -46 19 -60 9
-21 43 -131 81 -260 11 -40 9 509 -3 570 -8 43 -25 152 -31 204 -2 21 -9 44
-15 51 -19 23 -47 202 -50 323 0 9 -97 12 -449 12 l-449 0 -10 -32 c-5 -18
-20 -78 -32 -133 -12 -55 -32 -131 -45 -170 -13 -38 -37 -122 -54 -185 -17
-64 -43 -145 -59 -180 -16 -36 -54 -138 -83 -227 -29 -90 -56 -163 -60 -163
-13 0 -71 157 -88 240 -10 49 -73 199 -101 240 -9 14 -22 48 -29 75 -7 28 -28
82 -46 120 -37 75 -85 240 -100 340 -12 81 -1 75 -144 75 -94 0 -131 -3 -134
-12 -4 -10 -6 -10 -6 0 -1 9 -71 12 -316 12 l-315 0 -10 -22 c-11 -28 -54
-169 -56 -183 0 -5 -6 -23 -13 -40 -15 -37 -68 -230 -83 -305 -10 -53 -17 -74
-38 -122 -5 -13 -23 -61 -39 -108 -58 -169 -88 -250 -95 -258 -19 -18 -91 128
-135 274 -44 149 -98 292 -137 366 -8 14 -14 38 -14 51 0 14 -4 29 -10 32 -5
3 -10 14 -10 23 0 9 -12 42 -27 72 -15 30 -28 65 -29 77 -2 12 -10 42 -18 68
-9 25 -16 52 -16 60 0 13 -34 15 -225 15 l-225 0 0 -81z m1611 8 c-8 -8 -11
-7 -11 4 0 20 13 34 18 19 3 -7 -1 -17 -7 -23z m1471 -49 c-9 -9 -15 -9 -24 1
-11 11 -10 13 5 8 10 -4 17 -2 17 5 0 6 3 8 7 5 4 -4 1 -13 -5 -19z m-1405
-98 c12 -41 24 -87 27 -103 3 -17 8 -33 13 -36 4 -3 9 -17 11 -31 1 -13 6 -27
10 -30 7 -4 23 -35 26 -50 5 -22 43 -100 49 -100 4 0 7 -8 7 -17 0 -10 9 -36
19 -58 11 -22 31 -69 44 -105 14 -36 45 -117 70 -180 25 -63 68 -176 97 -250
28 -74 59 -146 69 -160 20 -28 38 -68 142 -323 38 -92 94 -216 126 -275 32
-58 60 -110 61 -114 4 -9 -109 -11 -133 -2 -9 4 -25 25 -37 48 -11 22 -26 48
-33 56 -7 8 -20 38 -30 65 -10 28 -24 55 -32 61 -7 6 -13 14 -13 18 0 4 -7 23
-16 44 -10 20 -18 42 -19 47 -2 6 -21 49 -44 96 -22 48 -41 93 -41 101 0 7 -6
22 -14 33 -7 11 -14 22 -14 25 0 4 -29 68 -113 246 -10 23 -19 47 -19 54 0 8
-17 50 -38 94 -21 45 -49 117 -61 161 -14 51 -30 86 -44 97 -13 10 -16 18 -9
18 7 0 2 10 -12 24 -15 13 -26 33 -26 44 0 11 -4 23 -9 26 -5 3 -9 16 -9 28 0
41 -20 77 -46 84 -14 3 -29 3 -34 0 -5 -3 -19 -38 -32 -78 -12 -40 -26 -80
-30 -88 -3 -8 -17 -49 -29 -90 -12 -41 -31 -102 -41 -135 -11 -33 -33 -112
-50 -175 -17 -63 -40 -135 -52 -160 -11 -25 -44 -115 -73 -200 -29 -85 -67
-193 -84 -240 -17 -47 -35 -108 -40 -137 -23 -120 -39 -134 -145 -125 -67 5
-69 12 -28 110 52 121 82 206 97 275 8 37 24 86 36 108 11 23 22 51 25 63 2
11 8 30 14 41 5 11 25 61 44 110 54 139 83 207 93 214 13 9 103 290 107 334 2
20 8 42 13 49 12 16 38 75 48 108 4 14 19 50 33 80 34 74 63 161 57 170 -3 4
2 13 10 20 8 7 13 15 11 19 -4 6 20 94 40 154 12 32 28 12 51 -63z m1753 60
c0 -5 -4 -10 -10 -10 -5 0 -10 5 -10 10 0 6 5 10 10 10 6 0 10 -4 10 -10z m50
0 c0 -5 -4 -10 -10 -10 -5 0 -10 5 -10 10 0 6 5 10 10 10 6 0 10 -4 10 -10z
m-481 -13 c25 15 35 2 27 -32 -4 -16 -1 -27 10 -33 21 -12 10 -52 -14 -53 -14
0 -13 -2 3 -8 19 -8 19 -8 0 -19 -12 -7 -15 -12 -6 -12 9 0 11 -7 7 -22 -4
-13 -8 -30 -10 -38 -2 -8 -15 -44 -29 -80 -31 -80 -64 -189 -76 -255 -6 -27
-26 -95 -46 -150 -20 -55 -41 -116 -46 -135 -6 -19 -19 -62 -30 -95 -10 -33
-23 -89 -28 -125 -5 -36 -26 -108 -46 -160 -39 -101 -50 -134 -84 -245 -26
-87 -44 -155 -46 -178 -3 -32 -41 -72 -66 -69 -46 5 -56 23 -119 197 -18 50
-41 101 -51 115 -9 14 -28 57 -42 95 -27 80 -109 277 -169 410 -22 50 -51 123
-64 163 -13 39 -42 111 -64 158 -22 47 -40 92 -40 99 0 8 -12 42 -26 77 -14
35 -32 79 -39 98 -7 19 -18 51 -25 70 -7 19 -13 46 -12 59 0 17 -2 20 -8 10
-12 -19 -32 34 -32 84 -1 21 -4 33 -8 27 -5 -7 -9 -2 -12 14 -3 15 -2 29 2 31
12 7 70 -16 70 -28 0 -7 4 -7 12 1 21 21 33 13 55 -35 20 -44 37 -94 35 -100
-1 -2 15 -38 34 -80 49 -111 51 -115 66 -150 7 -18 16 -33 19 -33 6 0 21 -57
17 -63 -1 -1 10 -22 24 -47 14 -25 31 -63 38 -85 7 -22 16 -44 20 -50 4 -5 10
-23 14 -40 4 -16 19 -61 33 -100 15 -38 26 -74 26 -80 0 -5 11 -11 24 -11 14
-1 27 -5 31 -8 10 -11 9 -70 -1 -78 -12 -8 -17 -68 -5 -65 4 1 31 -47 59 -108
65 -143 82 -175 92 -182 12 -7 36 18 42 43 18 86 94 307 123 360 14 24 38 108
47 157 7 42 53 186 65 202 4 6 20 46 35 90 15 44 41 107 56 140 16 33 31 76
34 95 9 63 24 115 34 118 6 2 11 13 11 25 0 30 29 108 30 81 0 -11 9 -29 21
-40 21 -19 21 -19 17 11 -2 17 -8 29 -15 28 -8 -2 -13 8 -13 25 0 21 2 24 10
12 8 -12 13 -13 29 -3z m496 -40 c25 3 45 1 49 -5 4 -6 -2 -8 -15 -5 -28 8
-21 -18 9 -33 33 -17 40 -28 13 -21 -23 6 -23 5 -5 -13 39 -39 58 -70 35 -56
-5 3 -11 -1 -14 -9 -4 -9 -1 -12 8 -9 17 7 32 -36 15 -46 -8 -5 -7 -9 4 -13
23 -9 20 -30 -4 -22 -11 3 -30 -1 -44 -10 -13 -9 -26 -12 -29 -8 -7 10 -48
124 -51 140 -1 7 -5 15 -8 19 -4 3 -4 12 -1 20 3 8 1 14 -5 14 -5 0 -12 12
-15 28 -3 15 -8 36 -12 47 -6 18 -4 18 10 -2 15 -19 23 -21 60 -16z m-415 13
c0 -5 -2 -10 -4 -10 -3 0 -8 5 -11 10 -3 6 -1 10 4 10 6 0 11 -4 11 -10z
m-1690 -43 c8 -3 1 -4 -16 -4 -21 1 -30 6 -27 15 3 8 10 9 17 4 6 -5 18 -12
26 -15z m33 -35 c6 -8 -22 -125 -32 -132 -7 -6 -38 -87 -53 -140 -5 -19 -16
-42 -24 -51 -8 -8 -14 -21 -14 -27 0 -7 -6 -12 -13 -12 -7 0 -14 -9 -15 -20
-1 -11 -2 -28 -3 -37 -1 -10 -5 -20 -8 -23 -4 -3 -11 -23 -17 -45 -44 -159
-90 -311 -114 -370 -15 -38 -33 -90 -40 -115 -13 -49 -50 -149 -81 -217 -10
-23 -23 -63 -29 -89 -6 -25 -17 -62 -26 -82 -9 -21 -20 -64 -25 -97 -17 -105
-60 -136 -97 -70 -9 17 -20 32 -23 35 -3 3 -6 14 -6 25 -1 25 -53 166 -81 222
-12 23 -22 50 -22 61 0 10 -5 23 -12 30 -7 7 -8 12 -4 12 5 0 3 7 -4 15 -7 8
-9 15 -6 15 4 0 -2 13 -13 29 -23 32 -58 110 -65 144 -3 12 -12 47 -21 77 -8
30 -17 63 -19 72 -3 9 -10 27 -17 40 -7 13 -12 25 -11 28 3 10 -32 95 -42 102
-6 4 -7 10 -3 14 4 4 0 15 -9 25 -8 9 -16 27 -16 40 -1 13 -6 30 -11 37 -5 6
-7 12 -4 12 4 0 -2 20 -13 44 -10 24 -17 46 -15 48 2 2 -9 29 -24 61 -15 31
-24 57 -19 57 4 0 8 -4 8 -10 0 -5 16 -10 35 -10 35 0 44 8 49 44 3 22 16 32
16 13 0 -10 0 -19 0 -22 0 -3 10 -15 21 -26 17 -17 19 -23 8 -30 -10 -6 -10
-9 -2 -9 13 0 49 -60 36 -60 -5 0 -1 -4 7 -10 11 -7 31 -53 54 -125 2 -5 6
-17 9 -25 31 -77 110 -301 114 -325 3 -16 10 -33 16 -37 7 -4 12 -13 13 -20 0
-7 5 -22 10 -33 4 -11 22 -58 39 -104 34 -95 53 -115 81 -86 11 10 20 26 21
34 5 43 39 153 67 215 14 32 26 65 26 73 0 8 9 33 20 55 11 23 20 48 20 55 0
8 5 11 10 8 6 -3 10 3 10 14 0 11 5 23 10 26 6 3 10 21 10 38 0 47 63 233 78
230 5 -1 8 8 7 20 -2 25 32 114 52 138 7 9 10 19 6 23 -4 4 -1 5 7 1 9 -3 20
3 28 15 10 17 10 20 -2 20 -8 0 -17 -6 -19 -12 -4 -9 -6 -10 -6 -1 -1 16 27
43 42 39 7 -1 9 -1 4 1 -4 3 -5 9 -1 14 3 5 0 9 -5 9 -6 0 -11 6 -11 13 1 16
35 57 49 57 15 0 14 17 -1 23 -24 8 12 37 43 35 32 -2 35 -8 17 -27 -11 -11
-9 -11 10 -2 12 6 22 21 22 31 0 20 14 27 23 12z m-1016 -57 c0 -8 -4 -15 -9
-15 -4 0 -8 7 -8 15 0 8 4 15 8 15 5 0 9 -7 9 -15z m778 -45 c-5 -16 -13 -20
-33 -18 -15 2 -26 8 -24 13 2 6 12 9 23 7 11 -2 19 0 18 5 -4 24 1 37 12 26 6
-6 8 -21 4 -33z m466 -648 c20 -31 39 -74 43 -95 9 -51 67 -202 115 -302 21
-44 55 -120 75 -170 20 -49 41 -99 46 -110 20 -42 110 -318 105 -323 -2 -3
-107 0 -232 7 -125 6 -285 11 -355 11 -133 0 -138 2 -116 43 6 12 19 54 29 92
27 107 63 236 110 390 69 228 98 347 99 402 0 45 24 113 40 113 3 0 21 -26 41
-58z m1594 -149 c9 -27 21 -61 25 -78 128 -458 184 -639 218 -715 l30 -65
-126 -6 c-193 -10 -440 -10 -446 0 -3 4 -1 23 4 42 6 19 15 63 20 98 6 34 28
111 49 170 21 58 53 167 70 242 18 74 38 147 46 162 8 15 12 27 10 27 -6 0 19
67 45 123 12 26 26 47 30 47 5 0 16 -21 25 -47z m-2143 -990 c-2 -10 -18 -58
-35 -108 -17 -49 -34 -106 -38 -125 -4 -19 -19 -69 -34 -110 -26 -75 -79 -259
-95 -335 -21 -100 -79 -212 -98 -190 -4 6 -38 102 -75 215 -94 291 -143 439
-160 486 -26 69 -67 153 -77 159 -23 14 -7 24 43 27 28 2 169 2 312 1 244 -2
260 -3 257 -20z m648 5 c0 -4 21 -8 47 -10 47 -3 48 -3 76 -63 48 -99 122
-290 182 -468 31 -93 73 -204 95 -247 21 -44 46 -103 55 -131 10 -29 26 -67
36 -84 10 -17 25 -51 34 -75 13 -37 69 -160 104 -230 23 -44 60 12 107 160 9
30 41 105 69 165 29 61 59 130 66 155 7 25 16 50 19 55 9 14 40 139 40 163 0
11 7 42 15 68 29 99 68 232 95 329 45 161 59 192 83 199 34 9 135 7 141 -3 10
-16 -45 -215 -80 -290 -20 -42 -44 -94 -55 -117 -10 -23 -19 -48 -19 -56 0
-28 -49 -170 -79 -227 -16 -31 -38 -85 -50 -120 -12 -36 -34 -94 -51 -130 -37
-83 -99 -245 -110 -291 -6 -22 -5 -39 2 -47 17 -21 1 -43 -32 -43 -23 0 -30
-4 -30 -20 0 -11 -15 -52 -34 -92 -19 -40 -51 -118 -71 -173 -21 -55 -41 -107
-45 -115 -9 -17 -10 -14 -35 115 -38 200 -96 391 -137 448 -12 16 -33 66 -49
111 -15 44 -48 137 -74 206 -25 69 -53 152 -61 185 -23 90 -156 399 -196 457
-10 14 -18 29 -18 33 0 3 -21 42 -46 86 -25 44 -44 85 -41 92 5 13 47 18 47 5z
m580 -14 c154 3 335 -6 347 -17 3 -3 -14 -80 -37 -167 -12 -47 -23 -89 -25
-95 -12 -52 -19 -76 -35 -110 -10 -22 -21 -56 -25 -75 -4 -19 -20 -75 -35
-125 -16 -49 -40 -128 -54 -175 -30 -99 -67 -175 -85 -175 -13 0 -51 87 -94
215 -65 196 -144 410 -183 495 -15 33 -61 155 -74 197 -12 38 11 56 52 40 26
-10 29 -9 23 5 -5 16 -4 16 12 0 16 -14 43 -16 213 -13z m1216 -486 c-18 -10
-39 -2 -31 12 3 4 15 6 26 3 19 -5 19 -7 5 -15z"/>
<path d="M1900 3707 c0 -20 -4 -23 -30 -19 -24 3 -30 1 -30 -14 0 -11 5 -26
10 -34 8 -13 10 -13 10 2 0 13 8 16 45 14 49 -4 49 -4 36 22 -5 9 -12 25 -15
35 -8 25 -26 21 -26 -6z"/>
<path d="M2956 3613 c-4 -9 -3 -20 2 -25 6 -6 12 -1 15 11 6 25 -8 38 -17 14z"/>
<path d="M2290 2820 c0 -5 5 -10 10 -10 6 0 10 5 10 10 0 6 -4 10 -10 10 -5 0
-10 -4 -10 -10z"/>
<path d="M390 3346 c0 -2 7 -6 15 -10 8 -3 15 -1 15 4 0 6 -7 10 -15 10 -8 0
-15 -2 -15 -4z"/>
<path d="M1198 3253 c7 -3 16 -2 19 1 4 3 -2 6 -13 5 -11 0 -14 -3 -6 -6z"/>
<path d="M1591 1193 c-15 -13 -31 -52 -52 -132 -16 -63 -32 -118 -35 -123 -3
-5 -21 -59 -39 -121 -19 -62 -46 -143 -60 -182 -15 -38 -31 -83 -37 -100 -7
-16 -20 -43 -30 -60 -10 -16 -18 -39 -18 -51 0 -11 -10 -50 -21 -85 -12 -35
-23 -71 -24 -79 -1 -8 -5 -22 -8 -30 -2 -8 -15 -57 -27 -109 -12 -51 -24 -100
-27 -107 -4 -11 12 -14 79 -14 l84 0 12 33 c15 37 72 211 77 235 2 9 12 37 20
62 24 65 65 221 65 246 0 27 59 146 70 139 4 -3 10 -17 13 -32 8 -39 33 -150
46 -199 6 -22 13 -67 17 -99 3 -32 8 -68 11 -79 3 -12 11 -52 17 -91 6 -38 14
-75 18 -80 3 -6 9 -28 13 -50 15 -93 4 -85 110 -85 52 0 95 2 95 5 0 3 -4 13
-9 23 -11 20 -53 178 -71 267 -7 33 -16 74 -21 90 -5 17 -20 101 -34 187 -13
86 -31 174 -40 195 -8 21 -26 79 -40 128 -14 50 -37 122 -51 160 -57 151 -68
166 -103 138z"/>
<path d="M91 1141 c-6 -23 -16 -41 -20 -41 -11 0 -37 -97 -53 -195 -7 -51 -13
-231 -15 -493 l-3 -412 115 0 115 0 0 30 c0 25 -5 30 -32 35 -68 13 -93 12
-114 -2 -13 -8 -25 -10 -28 -5 -3 5 -2 45 4 88 5 44 11 104 14 135 6 65 30
182 44 221 25 62 34 46 97 -167 20 -66 38 -127 42 -135 4 -8 14 -55 22 -105
l16 -90 78 -3 c48 -2 77 1 77 7 0 6 -9 34 -20 63 -11 29 -25 91 -30 137 -6 46
-20 109 -31 140 -10 31 -31 106 -44 166 -14 61 -41 160 -59 220 -18 61 -42
139 -52 175 -10 36 -33 99 -51 142 -18 42 -33 80 -33 85 0 5 -6 17 -13 27 -12
16 -14 14 -26 -23z m-36 -821 c3 -5 1 -10 -4 -10 -6 0 -11 5 -11 10 0 6 2 10
4 10 3 0 8 -4 11 -10z"/>
<path d="M3078 1057 c-20 -37 -88 -236 -165 -482 -25 -81 -90 -241 -168 -415
-23 -52 -45 -110 -48 -127 l-6 -33 93 0 94 0 6 33 c3 17 15 50 26 72 18 37 29
69 30 80 0 3 6 18 13 33 8 15 18 45 22 67 4 22 10 45 14 50 13 16 87 254 106
337 10 43 22 75 26 72 5 -3 9 -12 9 -19 0 -8 14 -65 31 -127 18 -62 35 -139
39 -171 5 -33 17 -93 29 -135 22 -83 51 -238 51 -271 0 -19 6 -21 76 -21 74 0
76 1 70 22 -9 35 -52 221 -76 328 -11 52 -36 160 -55 240 -19 80 -36 159 -37
175 -2 43 -78 275 -90 275 -5 0 -6 5 -3 10 3 6 2 10 -4 10 -5 0 -13 9 -16 20
-11 34 -41 24 -67 -23z m-33 -307 c18 -8 17 -9 -7 -9 -16 -1 -28 4 -28 9 0 12
8 12 35 0z"/>
<path d="M140 106 c0 -2 7 -7 16 -10 8 -3 12 -2 9 4 -6 10 -25 14 -25 6z"/>
</g>
</svg>
